<svg xmlns="http://www.w3.org/2000/svg" xml:space="preserve" width="64px" height="64px" style="shape-rendering:geometricPrecision; text-rendering:geometricPrecision; image-rendering:optimizeQuality; fill-rule:evenodd; clip-rule:evenodd"
     viewBox="0 0 640 640"
     xmlns:xlink="http://www.w3.org/1999/xlink">
    <g id="ellipsis">
        <path d="M320 0c43.0753,0 78.0128,34.9374 78.0128,78.0128 0,43.0753 -34.9374,78.001 -78.0128,78.001 -43.0753,0 -78.0128,-34.9256 -78.0128,-78.001 0,-43.0753 34.9374,-78.0128 78.0128,-78.0128zm0 483.986c43.0753,0 78.0128,34.9374 78.0128,78.0128 0,43.0753 -34.9374,78.001 -78.0128,78.001 -43.0753,0 -78.0128,-34.9256 -78.0128,-78.001 0,-43.0753 34.9374,-78.0128 78.0128,-78.0128zm0 -241.987c43.0753,0 78.0128,34.9374 78.0128,78.001 0,43.0753 -34.9374,78.0128 -78.0128,78.0128 -43.0753,0 -78.0128,-34.9374 -78.0128,-78.0128 0,-43.0635 34.9374,-78.001 78.0128,-78.001z" fill="currentColor" />
     </g>
</svg>
