<?xml version="1.0" encoding="utf-8" ?>
<svg width="1792" height="1792" viewBox="0 0 1000 1000" xmlns="http://www.w3.org/2000/svg">
    <g id="icon">
        <path d="M990,806.4c0,32.7-28.6,61.3-61.3,61.3c-44.9,0-98-24.5-102.1-61.3c0-32.7,53.1-61.3,98-61.3C961.4,745.1,990,773.7,990,806.4z" fill="currentColor" />
        <path d="M659.3,22.4C687.8,83.6,528.6,91.8,455.1,149C389.7,198,328.5,279.6,304,251.1c-49-49,12.2-110.2,89.8-167.4C491.8,14.2,647-6.2,659.3,22.4z" fill="currentColor" />
        <path d="M704.2,136.7c4.1,32.7-110.3,36.7-196,77.6c-85.8,44.9-130.7,77.6-155.2,49c-53.1-49,8.2-73.5,89.8-126.6C561.3,67.3,700.1,83.6,704.2,136.7z" fill="currentColor" />
        <path d="M908.3,704.3c0-85.7-28.6-216.4-167.4-281.7c-130.7-61.3-314.4-8.2-322.6-106.2c-44.9,20.4-171.5,106.2-191.9,130.7c-122.5,159.2,4.1,175.6-32.7,302.2c-16.3,57.1-12.2,130.6-20.4,142.9c-20.4,24.5-122.5-12.3-122.5,81.7c0,16.3,24.5,16.3,134.7,16.3c49,0,89.8-138.8,151.1-204.2c-49-249.1,196-245,253.2-134.7c-118.4-61.3-212.3,8.2-212.3,85.7c0,114.4,155.2,142.9,204.2,151.1c-285.8,0-285.8,53.1-285.8,81.7c0,20.4,40.8,20.4,93.9,20.4c65.3,0,147-8.2,204.2-8.2c57.2,0,138.8,8.2,187.9,8.2c53.1,0,49-65.3,28.6-98C781.8,839,908.3,826.8,908.3,704.3z" fill="currentColor" />
        <path d="M246.8,173.5c-32.7,0-61.3,8.2-89.8,20.4C83.5,230.6,10,336.8,10,414.4c0,44.9,20.4,85.8,175.6,85.8c191.9,0,232.8-122.5,232.8-183.8C418.3,234.7,328.5,173.5,246.8,173.5z M173.3,381.7c-24.5,0-44.9-20.4-44.9-44.9s20.4-44.9,44.9-44.9c24.5,0,44.9,20.4,44.9,44.9S197.8,381.7,173.3,381.7z" fill="currentColor" />
    </g>
</svg>